# xmcd CD database file
#
# Track frame offsets:
#	150
#	23375
#	38005
#	59962
#	78062
#	96872
#	117792
#	128207
#	161122
#	176317
#	196655
#	231880
#	269765
#	295630
#
# Disc length: 4265 seconds
#
# Revision: 0
# Processed by: cddbd v1.5.1PL0 Copyright (c) Steve Scherf et al.
# Submitted via: CDex 1.51
#
DISCID=b510a70e
DTITLE=Various Artist - GUITAR TIME JAZZ
DYEAR=2004
DGENRE=Jazz
TTITLE0=EARL KLUGH - THE SHADOW OF YOUR SMILE
TTITLE1=JOHNNY SMITH - MOONLIGHT IN VERMONT
TTITLE2=WES MONTGOMERY - SUMMERTIME
TTITLE3=KENNY BURRELL - MIDNIGHT
TTITLE4=CHARLIE HUNTER - MORE THAN THIS
TTITLE5=BILL EVANS&JIM HALL - I HEAR A RHAPSODY
TTITLE6=LAURINDO ALMEIDA - THE GIRL FROM IPANEMA
TTITLE7=GRANT GREEN - I WANT TO HOLD YOUR HAND
TTITLE8=JOE PASS - DJANGO
TTITLE9=TAL FARLOW - FLAMINGO
TTITLE10=STANLEY JORDAN - AUTUMN LEAVES
TTITLE11=JHON SCOFIELD - GRACE UNDER PRESSURE
TTITLE12=RONNY JORDAN - A BRIGHTER DAY
TTITLE13=SILJE with PAT METHENY - TELL ME WHERE YOU'RE GOING
EXTD=YEAR: 2004
EXTT0=
EXTT1=
EXTT2=
EXTT3=
EXTT4=
EXTT5=
EXTT6=
EXTT7=
EXTT8=
EXTT9=
EXTT10=
EXTT11=
EXTT12=
EXTT13=
PLAYORDER=
